Normalized EMG Linear Envelopes
nRows=191
nColumns=4

endheader
time	 med_gas_r	  soleus_r	 tib_ant_r	
2.56234	  0.114592	  0.125822	  0.045241	
2.62483	  0.114314	  0.122166	  0.043660	
2.68733	  0.115520	  0.118616	  0.040935	
2.74982	  0.120404	  0.120561	  0.039467	
2.81232	  0.126540	  0.127498	  0.039159	
2.87482	  0.132207	  0.132232	  0.039242	
2.93731	  0.133292	  0.130881	  0.039187	
2.99981	  0.130508	  0.129317	  0.038143	
3.0623	  0.126424	  0.129104	  0.037153	
3.1248	  0.124805	  0.129295	  0.037490	
3.1873	  0.126020	  0.128472	  0.038153	
3.24979	  0.127852	  0.128254	  0.038600	
3.31229	  0.129854	  0.129052	  0.039172	
3.37478	  0.128418	  0.128777	  0.039296	
3.43728	  0.124250	  0.133708	  0.040319	
3.49978	  0.122877	  0.145585	  0.042486	
3.56227	  0.124109	  0.158425	  0.044200	
3.62477	  0.124651	  0.165072	  0.046265	
3.68726	  0.123104	  0.160757	  0.047442	
3.74976	  0.120576	  0.152070	  0.047623	
3.81226	  0.117745	  0.146340	  0.047784	
3.87475	  0.115878	  0.147370	  0.047295	
3.93725	  0.114658	  0.148510	  0.046665	
3.99974	  0.116537	  0.149585	  0.046551	
4.06224	  0.121939	  0.157516	  0.047010	
4.12474	  0.127861	  0.167473	  0.046994	
4.18723	  0.134035	  0.174237	  0.046018	
4.24973	  0.142196	  0.167869	  0.044213	
4.31222	  0.151513	  0.155705	  0.041877	
4.37472	  0.157159	  0.163927	  0.039481	
4.43722	  0.158014	  0.207871	  0.037433	
4.49971	  0.153826	  0.284331	  0.035876	
4.56221	  0.146454	  0.363561	  0.035813	
4.6247	  0.138118	  0.362832	  0.037109	
4.6872	  0.132051	  0.291121	  0.038845	
4.7497	  0.128790	  0.226289	  0.038893	
4.81219	  0.127280	  0.193245	  0.038759	
4.87469	  0.126759	  0.182550	  0.038975	
4.93718	  0.125673	  0.183298	  0.039855	
4.99968	  0.124258	  0.191971	  0.042178	
5.06218	  0.126517	  0.214825	  0.047377	
5.12467	  0.137438	  0.249267	  0.058242	
5.18717	  0.162173	  0.280790	  0.076047	
5.24966	  0.201087	  0.285912	  0.097485	
5.31216	  0.246160	  0.271585	  0.118701	
5.37466	  0.282728	  0.273518	  0.135243	
5.43715	  0.288381	  0.305616	  0.143837	
5.49965	  0.284539	  0.334946	  0.147262	
5.56214	  0.290334	  0.346621	  0.151273	
5.62464	  0.284162	  0.366927	  0.157929	
5.68714	  0.269520	  0.385232	  0.166683	
5.74963	  0.269667	  0.368367	  0.175767	
5.81213	  0.286703	  0.347490	  0.181382	
5.87462	  0.296922	  0.359699	  0.183317	
5.93712	  0.296109	  0.389168	  0.182500	
5.99962	  0.316148	  0.396064	  0.186103	
6.06211	  0.338006	  0.393880	  0.200671	
6.12461	  0.342306	  0.392356	  0.222870	
6.1871	  0.348228	  0.383341	  0.241108	
6.2496	  0.348579	  0.350146	  0.250049	
6.3121	  0.344602	  0.314078	  0.253769	
6.37459	  0.354254	  0.306215	  0.254173	
6.43709	  0.356028	  0.333591	  0.257489	
6.49958	  0.355286	  0.348203	  0.266156	
6.56208	  0.368454	  0.334973	  0.282036	
6.62458	  0.374083	  0.335895	  0.311301	
6.68707	  0.378953	  0.359026	  0.351327	
6.74957	  0.391409	  0.381229	  0.389122	
6.81206	  0.394097	  0.368520	  0.414887	
6.87456	  0.389505	  0.325189	  0.431333	
6.93706	  0.372592	  0.273328	  0.435070	
6.99955	  0.340766	  0.237135	  0.421014	
7.06205	  0.325754	  0.215951	  0.400250	
7.12454	  0.324664	  0.199755	  0.382169	
7.18704	  0.320060	  0.195506	  0.369938	
7.24954	  0.327241	  0.211829	  0.365452	
7.31203	  0.342255	  0.242677	  0.369172	
7.37453	  0.350464	  0.264246	  0.381528	
7.43702	  0.365875	  0.268534	  0.398962	
7.49952	  0.375466	  0.262365	  0.414556	
7.56202	  0.366765	  0.248232	  0.421538	
7.62451	  0.361404	  0.240118	  0.428119	
7.68701	  0.347509	  0.243638	  0.430219	
7.7495	  0.336286	  0.265566	  0.428256	
7.812	  0.353427	  0.325261	  0.416362	
7.8745	  0.374438	  0.412072	  0.394735	
7.93699	  0.387057	  0.476657	  0.376444	
7.99949	  0.393771	  0.500793	  0.369064	
8.06198	  0.398337	  0.520094	  0.371656	
8.12448	  0.419881	  0.552345	  0.375201	
8.18698	  0.439334	  0.559043	  0.390636	
8.24947	  0.451394	  0.533794	  0.408797	
8.31197	  0.454291	  0.487493	  0.412486	
8.37446	  0.436339	  0.408169	  0.399742	
8.43696	  0.407312	  0.320806	  0.389337	
8.49946	  0.392948	  0.272398	  0.397516	
8.56195	  0.380272	  0.274915	  0.421131	
8.62445	  0.384661	  0.313488	  0.441857	
8.68694	  0.416629	  0.378450	  0.465861	
8.74944	  0.444878	  0.425212	  0.491406	
8.81194	  0.473046	  0.416567	  0.497460	
8.87443	  0.480992	  0.371201	  0.483836	
8.93693	  0.476101	  0.320106	  0.464808	
8.99942	  0.485351	  0.295175	  0.453251	
9.06192	  0.475996	  0.299112	  0.444658	
9.12442	  0.454694	  0.301647	  0.433333	
9.18691	  0.440935	  0.290739	  0.426112	
9.24941	  0.427989	  0.266626	  0.426716	
9.3119	  0.430019	  0.242759	  0.433475	
9.3744	  0.428123	  0.220593	  0.431028	
9.4369	  0.409231	  0.207212	  0.420526	
9.49939	  0.393051	  0.209081	  0.402765	
9.56189	  0.368130	  0.220332	  0.380905	
9.62438	  0.352851	  0.231840	  0.373797	
9.68688	  0.358425	  0.235462	  0.385461	
9.74938	  0.349483	  0.240567	  0.396422	
9.81187	  0.338275	  0.255825	  0.401482	
9.87437	  0.351026	  0.271021	  0.401481	
9.93686	  0.371845	  0.289376	  0.406404	
9.99936	  0.396191	  0.304318	  0.413552	
10.0619	  0.434488	  0.309523	  0.410679	
10.1244	  0.458773	  0.315396	  0.393748	
10.1868	  0.480656	  0.314810	  0.373973	
10.2493	  0.492634	  0.314106	  0.361248	
10.3118	  0.477903	  0.305618	  0.357918	
10.3743	  0.473135	  0.290216	  0.367555	
10.4368	  0.482428	  0.275757	  0.394649	
10.4993	  0.485076	  0.266601	  0.423898	
10.5618	  0.474854	  0.258707	  0.439414	
10.6243	  0.453885	  0.256352	  0.431231	
10.6868	  0.447731	  0.267162	  0.402724	
10.7493	  0.449933	  0.274416	  0.370619	
10.8118	  0.454736	  0.275356	  0.343564	
10.8743	  0.447972	  0.271003	  0.326815	
10.9368	  0.412969	  0.248255	  0.317898	
10.9993	  0.382713	  0.228606	  0.321275	
11.0618	  0.361962	  0.231130	  0.337695	
11.1243	  0.356192	  0.243608	  0.348489	
11.1868	  0.377148	  0.240616	  0.335126	
11.2493	  0.388283	  0.206386	  0.299246	
11.3118	  0.394560	  0.162548	  0.259086	
11.3743	  0.384205	  0.131895	  0.226301	
11.4368	  0.347554	  0.119335	  0.209221	
11.4993	  0.321699	  0.118764	  0.205333	
11.5618	  0.317035	  0.123360	  0.207526	
11.6243	  0.308873	  0.126205	  0.207231	
11.6868	  0.310688	  0.125832	  0.197845	
11.7492	  0.316206	  0.125216	  0.185583	
11.8117	  0.303794	  0.127247	  0.171633	
11.8742	  0.300668	  0.130446	  0.158629	
11.9367	  0.316847	  0.135214	  0.150542	
11.9992	  0.322714	  0.138288	  0.147635	
12.0617	  0.301586	  0.138804	  0.143871	
12.1242	  0.290821	  0.139633	  0.138757	
12.1867	  0.293574	  0.140593	  0.133555	
12.2492	  0.288992	  0.141959	  0.131815	
12.3117	  0.295462	  0.144375	  0.133096	
12.3742	  0.307735	  0.145795	  0.129341	
12.4367	  0.307725	  0.144865	  0.127026	
12.4992	  0.319085	  0.142400	  0.127986	
12.5617	  0.333412	  0.142834	  0.123790	
12.6242	  0.339969	  0.148336	  0.118234	
12.6867	  0.337200	  0.156320	  0.114654	
12.7492	  0.319027	  0.159004	  0.113467	
12.8117	  0.307884	  0.151434	  0.108202	
12.8742	  0.309554	  0.141382	  0.099103	
12.9367	  0.308240	  0.135370	  0.095288	
12.9992	  0.320858	  0.131706	  0.092421	
13.0617	  0.331177	  0.129713	  0.088011	
13.1242	  0.325006	  0.128879	  0.085521	
13.1867	  0.329093	  0.126219	  0.081819	
13.2492	  0.328463	  0.123198	  0.076935	
13.3116	  0.317868	  0.121083	  0.074723	
13.3741	  0.317060	  0.115044	  0.072345	
13.4366	  0.312624	  0.107525	  0.067615	
13.4991	  0.312895	  0.104965	  0.064218	
13.5616	  0.307822	  0.108033	  0.063503	
13.6241	  0.287547	  0.113327	  0.063832	
13.6866	  0.283596	  0.119739	  0.067341	
13.7491	  0.290558	  0.125020	  0.071655	
13.8116	  0.291757	  0.126942	  0.076340	
13.8741	  0.306181	  0.127955	  0.082404	
13.9366	  0.319965	  0.131190	  0.086896	
13.9991	  0.321713	  0.134925	  0.091624	
14.0616	  0.331550	  0.136399	  0.095797	
14.1241	  0.334606	  0.135624	  0.093986	
14.1866	  0.330584	  0.133490	  0.086600	
14.2491	  0.335629	  0.131106	  0.079867	
14.3116	  0.329250	  0.131272	  0.078684	
14.3741	  0.320800	  0.133591	  0.081198	
14.4366	  0.305573	  0.137849	  0.084382	
